# AST/ASF file generated using VICON BodyLanguage
# -----------------------------------------------
:version 1.10
:name VICON
:units
  mass 1.0
  length 0.45
  angle deg
:documentation
   .ast/.asf automatically generated from VICON data using
   VICON BodyBuilder and BodyLanguage model FoxedUp or BRILLIANT.MOD
:root
   order TX TY TZ RX RY RZ
   axis XYZ
   position 0 0 0  
   orientation 0 0 0 
:bonedata
  begin
     id 1 
     name lhipjoint
     direction 0.440178 -0.822639 0.359871 
     length 2.53113 
     axis 0 0 0  XYZ
  end
  begin
     id 2 
     name lfemur
     direction 0.34202 -0.939693 0  
     length 7.88132  
     axis 0 0 20  XYZ
    dof rx ry rz
    limits (-160.0 20.0)
           (-70.0 70.0)
           (-60.0 70.0)
  end
  begin
     id 3 
     name ltibia
     direction 0.34202 -0.939693 0   
     length 8.43783   
     axis 0 0 20   XYZ
    dof rx
    limits (-10.0 170.0)
  end
  begin
     id 4 
     name lfoot
     direction 0.0886351 -0.243523 0.965837   
     length 2.63414   
     axis -90 7.62852e-016 20   XYZ
    dof rx rz
    limits (-45.0 90.0)
           (-70.0 20.0)
  end
  begin
     id 5 
     name ltoes
     direction 1.53703e-011 -4.21717e-011 1   
     length 1.31427   
     axis -90 7.62852e-016 20   XYZ
    dof rx
    limits (-90.0 20.0)
  end
  begin
     id 6 
     name rhipjoint
     direction -0.399779 -0.839773 0.367367   
     length 2.47948  
     axis 0 0 0  XYZ 
  end
  begin
     id 7 
     name rfemur
     direction -0.34202 -0.939693 0   
     length 7.74806   
     axis 0 0 -20   XYZ
    dof rx ry rz
    limits (-160.0 20.0)
           (-70.0 70.0)
           (-70.0 60.0)
  end
  begin
     id 8 
     name rtibia
     direction -0.34202 -0.939693 0   
     length 8.74432   
     axis 0 0 -20   XYZ
    dof rx
    limits (-10.0 170.0)
 end
 begin
     id 9 
     name rfoot
     direction -0.108514 -0.298139 0.948334   
     length 2.66102  
     axis -90 -7.62852e-016 -20   XYZ
    dof rx rz
    limits (-45.0 90.0)
           (-20.0 70.0)
  end
  begin
     id 10 
     name rtoes
     direction -1.53392e-011 -4.22077e-011 1   
     length 1.31983   
     axis -90 -7.62852e-016 -20   XYZ
    dof rx
    limits (-90.0 20.0)
  end
  begin
     id 11 
     name lowerback
     direction 0.0113257 0.999866 0.0118602   
     length 2.58694   
     axis 0 0 0   XYZ
    dof rx ry rz
    limits (-20.0 45.0)
           (-30.0 30.0)
           (-30.0 30.0)
  end
  begin
     id 12 
     name upperback
     direction -0.0164747 0.995193 -0.0965375   
     length 2.52368   
     axis 0 0 0   XYZ
    dof rx ry rz
    limits (-20.0 45.0)
           (-30.0 30.0)
           (-30.0 30.0)
  end
  begin
     id 13 
     name thorax
     direction -0.0194301 0.99433 -0.104552   
     length 2.56099   
     axis 0 0 0   XYZ
    dof rx ry rz
    limits (-20.0 45.0)
           (-30.0 30.0)
           (-30.0 30.0)
  end
  begin
     id 14 
     name lowerneck
     direction 0.0148543 0.995587 -0.092657   
     length 1.71582   
     axis 0 0 0   XYZ
    dof rx ry rz
    limits (-20.0 45.0)
           (-30.0 30.0)
           (-30.0 30.0)
  end
  begin
     id 15 
     name upperneck
     direction -0.0135467 0.993656 -0.111639   
     length 1.68937   
     axis 0 0 0   XYZ
    dof rx ry rz
    limits (-20.0 45.0)
           (-30.0 30.0)
           (-30.0 30.0)
  end
  begin
     id 16
     name head
     direction -0.00615349 0.999547 -0.029448  
     length 1.7462  
     axis 0 0 0   XYZ
    dof rx ry rz
    limits (-20.0 45.0)
           (-30.0 30.0)
           (-30.0 30.0)
  end
  begin
     id 17 
     name lclavicle
     direction 0.988267 0.149885 0.0293713  
     length 4.47222  
     axis 0 0 0   XYZ
    dof ry rz
    limits (-20.0 10.0)
           (0.0 20.0)
  end
  begin
     id 18 
     name lhumerus
     direction 1 -4.48986e-011 -1.14833e-027   
     length 5.37148   
     axis 180 -30 -90   XYZ
    dof rx ry rz
    limits (-60.0 90.0)
           (-90.0 90.0)
           (-90.0 90.0)
  end
  begin
     id 19
     name lradius
     direction 0.999998 0.00170963 -0.000987055   
     length 3.94212   
     axis 180 -30 -90   XYZ
    dof rx
    limits (-10.0 170.0)
  end
  begin
     id 20
     name lwrist
     direction 0.999998 7.53149e-005 -0.00194706   
     length 1.97106   
     axis 4.65056e-015 90 90   XYZ
    dof ry
    limits (-180.0 0.0)
 end
  begin
     id 21 
     name lhand
     direction 1 -4.48973e-011 -1.31746e-026   
     length 1.17917   
     axis 8.4065e-015 90 90   XYZ
    dof rx rz
    limits (-90.0 90.0)
           (-45.0 45.0)
  end
  begin
     id 22 
     name lfingers
     direction 1 -4.49107e-011 -2.63492e-026   
     length 0.950679   
     axis 1.6813e-014 90 90   XYZ
    dof rx
    limits (0.0 90.0)
  end
  begin
     id 23
     name lthumb
     direction 0.707107 -6.35048e-011 0.707107   
     length 1.36499   
     axis -90 45 2.85299e-015   XYZ
    dof rx rz
    limits (-45.0 45.0)
           (-45.0 45.0)
  end
  begin
     id 24 
     name rclavicle
     direction -0.996699 0.0642895 -0.0495725   
     length 4.62611  
     axis 0 0 0   XYZ 
    dof ry rz
    limits (-10.0 20.0)
           (-20.0 0.0)
  end
  begin
     id 25 
     name rhumerus
     direction -1 -4.48919e-011 -2.41059e-027  
     length 5.4981   
     axis 180 30 90   XYZ
    dof rx ry rz
    limits (-90.0 60.0)
           (-90.0 90.0)
           (-90.0 90.0)
  end
  begin
     id 26 
     name rradius
     direction -0.999999 0.00118101 -0.000681858   
     length 3.48381   
     axis 180 30 90   XYZ
    dof rx
    limits (-10.0 170.0)
  end
  begin
     id 27 
     name rwrist
     direction -0.999999 0.000321823 -0.00132288   
     length 1.7419   
     axis 4.65056e-015 -90 -90   XYZ
    dof ry
    limits (-180.0 0.0)
  end
  begin
     id 28
     name rhand
     direction -1 -4.49022e-011 -1.31746e-026   
     length 1.34932   
     axis 8.4065e-015 -90 -90   XYZ
    dof rx rz
    limits (-90.0 90.0)
           (-45.0 45.0)
  end
  begin
     id 29
     name rfingers
     direction -1 -4.49178e-011 -2.63492e-026   
     length 1.08785   
     axis 1.6813e-014 -90 -90   XYZ
    dof rx
    limits (0.0 90.0)
  end
  begin
     id 30
     name rthumb
     direction -0.707107 -6.34713e-011 0.707107   
     length 1.56195   
     axis -90 -45 -2.85299e-015   XYZ
    dof rx rz
    limits (-45.0 45.0)
           (-45.0 45.0)
  end
:hierarchy
  begin
    root lhipjoint rhipjoint lowerback
    lhipjoint lfemur
    lfemur ltibia
    ltibia lfoot
    lfoot ltoes
    rhipjoint rfemur
    rfemur rtibia
    rtibia rfoot
    rfoot rtoes
    lowerback upperback
    upperback thorax
    thorax lowerneck lclavicle rclavicle
    lowerneck upperneck
    upperneck head
    lclavicle lhumerus
    lhumerus lradius
    lradius lwrist
    lwrist lhand lthumb
    lhand lfingers
    rclavicle rhumerus
    rhumerus rradius
    rradius rwrist
    rwrist rhand rthumb
    rhand rfingers
  end

#!OML:ASF X:\für Bonn\!DataBase\2005_08_10_Bjorn_Final\c3d\bjorn.ASF
:FULLY-SPECIFIED
:DEGREES
16
root 1.19971 19.278 2.08117 -175.917 -23.8762 -175.848
lowerback -6.79494 2.53509 -1.85046
upperback 6.80728 3.64439 -3.54921
thorax 11.2635 1.6334 -2.22512
lowerneck -3.3671 -8.11516 -4.80446
upperneck 21.2502 -15.1566 12.427
head 8.47605 -7.13946 3.49647
rclavicle -3.57812e-015 4.45278e-014
rhumerus -46.755 -41.7649 -64.3706
rradius 13.0605
rwrist 55.2804
rhand 0.56461 5.57865
rfingers 7.12502
rthumb 26.1311 -22.6433
lclavicle -3.57812e-015 4.45278e-014
lhumerus -7.7276 -8.49882 77.4569
lradius 58.2362
lwrist 0.0800684
lhand -32.7486 -22.5806
lfingers 7.12502
lthumb -5.97151 7.31529
rfemur -12.3551 -21.4715 22.0959
rtibia 31.0949
rfoot -19.3496 9.03214
rtoes -24.7441
lfemur -15.9221 1.88184 -14.7617
ltibia 31.4938
lfoot -15.3006 -7.09259
ltoes -3.96897
17
root 1.18748 19.2835 2.10893 -175.68 -23.7314 -175.993
lowerback -6.52926 2.60549 -1.83329
upperback 6.73438 3.72621 -3.62032
thorax 11.0292 1.67853 -2.30707
lowerneck -3.41708 -8.24891 -5.07039
upperneck 21.1719 -15.4108 12.8203
head 8.53894 -7.24951 3.6373
rclavicle 3.97569e-015 3.97569e-014
rhumerus -46.1544 -40.0273 -65.8843
rradius 13.5276
rwrist 53.164
rhand 0.171509 5.82024
rfingers 7.12502
rthumb 25.7546 -22.4568
lclavicle 3.97569e-015 3.97569e-014
lhumerus -7.96789 -10.2785 76.5586
lradius 58.6872
lwrist 1.04711
lhand -32.6576 -22.3197
lfingers 7.12502
lthumb -5.88363 7.5786
rfemur -12.6253 -21.4746 21.9426
rtibia 31.0787
rfoot -19.3792 9.20953
rtoes -24.8664
lfemur -16.1784 2.51987 -14.9879
ltibia 31.4646
lfoot -15.1657 -7.61393
ltoes -3.92125
18
root 1.17427 19.2872 2.13748 -175.449 -23.5503 -176.151
lowerback -6.2846 2.67557 -1.83637
upperback 6.66514 3.81032 -3.69064
thorax 10.8115 1.72275 -2.3764
lowerneck -3.51951 -8.40637 -5.30802
upperneck 21.1251 -15.6985 13.1756
head 8.62274 -7.3723 3.75358
rclavicle -1.78906e-014 -8.42847e-014
rhumerus -45.2959 -37.7683 -67.8893
rradius 14.1066
rwrist 50.3762
rhand -0.267633 6.10215
rfingers 7.12502
rthumb 25.334 -22.2352
lclavicle -1.78906e-014 -8.42847e-014
lhumerus -8.20545 -12.0053 75.6423
lradius 59.0956
lwrist 2.2166
lhand -32.3919 -22.2188
lfingers 7.12502
lthumb -5.62709 7.68652
rfemur -12.8846 -21.4437 21.7754
rtibia 31.0636
rfoot -19.457 9.33915
rtoes -25.046
lfemur -16.4478 3.3626 -15.2379
ltibia 31.4561
lfoot -14.9594 -8.32648
ltoes -3.43632
19
root 1.16063 19.2888 2.16683 -175.232 -23.3778 -176.337
lowerback -6.0499 2.73411 -1.87977
upperback 6.61954 3.88156 -3.74214
thorax 10.6222 1.75605 -2.40522
lowerneck -3.66444 -8.6178 -5.61153
upperneck 21.0425 -16.0427 13.5378
head 8.71676 -7.52151 3.87293
rclavicle 2.34566e-014 -3.18055e-014
rhumerus -44.4703 -35.4371 -69.8022
rradius 14.7033
rwrist 47.5083
rhand -0.743486 6.55242
rfingers 7.12502
rthumb 24.8781 -21.8487
lclavicle 2.34566e-014 -3.18055e-014
lhumerus -8.45067 -13.7135 74.7432
lradius 59.5241
lwrist 3.56512
lhand -32.0447 -22.1554
lfingers 7.12502
lthumb -5.29191 7.75852
rfemur -13.1005 -21.148 21.59
rtibia 31.0381
rfoot -19.643 9.19072
rtoes -25.262
lfemur -16.7097 4.29188 -15.5212
ltibia 31.4682
lfoot -14.7484 -9.16572
ltoes -2.92515
20
root 1.14552 19.2895 2.19548 -175.043 -23.2177 -176.534
lowerback -5.80523 2.77951 -1.92667
upperback 6.56459 3.93511 -3.81524
thorax 10.4178 1.78138 -2.45891
lowerneck -3.76623 -8.85461 -5.96217
upperneck 20.982 -16.4601 13.9847
head 8.83401 -7.7072 4.01984
rclavicle 4.37326e-015 1.06549e-013
rhumerus -43.8859 -33.2944 -71.4619
rradius 15.3342
rwrist 44.892
rhand -1.25783 7.09173
rfingers 7.12502
rthumb 24.3851 -21.3767
lclavicle 4.37326e-015 1.06549e-013
lhumerus -8.71603 -15.3767 73.8337
lradius 59.8838
lwrist 4.96712
lhand -31.5687 -22.1212
lfingers 7.12502
lthumb -4.83227 7.80368
rfemur -13.261 -20.7305 21.3872
rtibia 30.9927
rfoot -19.9008 8.84499
rtoes -25.7343
lfemur -16.9361 5.05915 -15.8253
ltibia 31.5066
lfoot -14.5714 -9.8591
ltoes -2.38213
21
root 1.13024 19.2886 2.22191 -174.848 -23.0807 -176.749
lowerback -5.64302 2.82509 -1.99891
upperback 6.54154 3.9951 -3.89461
thorax 10.2983 1.80672 -2.5017
lowerneck -3.86004 -9.1303 -6.31063
upperneck 20.902 -16.9533 14.4926
head 8.96288 -7.92568 4.17595
rclavicle 1.04163e-013 4.77083e-014
rhumerus -43.3022 -31.1384 -73.1171
rradius 15.9988
rwrist 42.0824
rhand -1.77086 7.64136
rfingers 7.12502
rthumb 23.8931 -20.8923
lclavicle 1.04163e-013 4.77083e-014
lhumerus -8.95838 -17.0408 72.932
lradius 60.2361
lwrist 6.37194
lhand -31.035 -22.0276
lfingers 7.12502
lthumb -4.31697 7.90838
rfemur -13.3807 -19.9909 21.1806
rtibia 30.9158
rfoot -20.2522 8.15369
rtoes -26.3136
lfemur -17.1876 5.89543 -16.1476
ltibia 31.5756
lfoot -14.3528 -10.6759
ltoes -1.7499
22
root 1.11572 19.2832 2.24608 -174.68 -23.0126 -177.019
lowerback -5.48478 2.82651 -2.1874
upperback 6.53714 4.00424 -3.94566
thorax 10.1894 1.79681 -2.45662
lowerneck -3.88612 -9.39502 -6.67257
upperneck 20.785 -17.4293 15.0036
head 9.07102 -8.14242 4.33966
rclavicle 3.37934e-014 -5.24792e-014
rhumerus -42.852 -29.2191 -74.4585
rradius 16.638
rwrist 39.4977
rhand -2.2345 8.19113
rfingers 7.12502
rthumb 23.4485 -20.4001
lclavicle 3.37934e-014 -5.24792e-014
lhumerus -9.3452 -18.5985 72.121
lradius 60.7358
lwrist 7.72929
lhand -30.4685 -21.7887
lfingers 7.12502
lthumb -3.76987 8.15773
rfemur -13.4239 -19.1924 20.9161
rtibia 30.8222
rfoot -20.6337 7.30164
rtoes -26.8573
lfemur -17.3943 6.76259 -16.5207
ltibia 31.6632
lfoot -14.1362 -11.5665
ltoes -1.03613
23
root 1.09974 19.2748 2.26896 -174.503 -22.9992 -177.363
lowerback -5.35077 2.79893 -2.46688
upperback 6.53593 3.98265 -3.98262
thorax 10.0901 1.76448 -2.34913
lowerneck -3.87115 -9.65208 -6.9707
upperneck 20.6722 -17.8838 15.4277
head 9.16046 -8.35322 4.46777
rclavicle 3.4191e-014 6.99722e-014
rhumerus -42.4708 -27.264 -75.6946
rradius 17.325
rwrist 36.8483
rhand -2.65756 8.60759
rfingers 7.12502
rthumb 23.0426 -20.0349
lclavicle 3.4191e-014 6.99722e-014
lhumerus -9.83999 -20.0573 71.4446
lradius 61.3007
lwrist 8.90632
lhand -29.8092 -21.4237
lfingers 7.12502
lthumb -3.13317 8.53299
rfemur -13.4311 -18.4662 20.5602
rtibia 30.7216
rfoot -20.9826 6.47729
rtoes -27.2484
lfemur -17.5853 7.44519 -16.9694
ltibia 31.759
lfoot -13.9422 -12.3669
ltoes -0.375295
24
root 1.08227 19.2675 2.29168 -174.354 -22.9554 -177.706
lowerback -5.22434 2.79365 -2.72269
upperback 6.54408 3.98865 -4.04626
thorax 10.0109 1.74752 -2.27959
lowerneck -3.89459 -9.90103 -7.05784
upperneck 20.6203 -18.344 15.7468
head 9.25263 -8.55748 4.52252
rclavicle -4.49253e-014 1.74931e-014
rhumerus -42.1904 -25.5088 -76.8002
rradius 18.0409
rwrist 34.2673
rhand -3.00211 8.92059
rfingers 7.12502
rthumb 22.7119 -19.7628
lclavicle -4.49253e-014 1.74931e-014
lhumerus -10.3598 -21.521 70.7745
lradius 61.97
lwrist 9.98587
lhand -29.1857 -20.8657
lfingers 7.12502
lthumb -2.53103 9.09908
rfemur -13.4046 -17.6836 20.1864
rtibia 30.6262
rfoot -21.3251 5.65288
rtoes -27.5731
lfemur -17.7241 7.8912 -17.4241
ltibia 31.8582
lfoot -13.8802 -12.8388
ltoes -0.297191
25
root 1.06241 19.2598 2.31468 -174.217 -22.9081 -178.086
lowerback -5.10052 2.77748 -3.03342
upperback 6.55697 3.98305 -4.08642
thorax 9.93266 1.71999 -2.15583
lowerneck -3.93552 -10.1074 -6.9808
upperneck 20.5923 -18.7168 15.8984
head 9.3124 -8.71865 4.50516
rclavicle 1.43125e-014 5.88403e-014
rhumerus -41.9818 -23.8891 -77.6946
rradius 18.7578
rwrist 31.828
rhand -3.25959 9.15121
rfingers 7.12502
rthumb 22.4648 -19.5622
lclavicle 1.43125e-014 5.88403e-014
lhumerus -10.956 -22.8885 70.251
lradius 62.6787
lwrist 10.8973
lhand -28.6097 -20.1977
lfingers 7.12502
lthumb -1.97479 9.77286
rfemur -13.3613 -16.906 19.7572
rtibia 30.5486
rfoot -21.6401 4.8027
rtoes -27.8976
lfemur -17.7978 7.96744 -17.9081
ltibia 31.9531
lfoot -13.8644 -12.9917
ltoes -0.031687
26
root 1.03912 19.2502 2.33879 -174.11 -22.8746 -178.468
lowerback -4.98226 2.74873 -3.32488
upperback 6.5762 3.95798 -4.10926
thorax 9.86461 1.68409 -2.02668
lowerneck -3.95667 -10.2526 -6.75043
upperneck 20.5548 -18.9815 15.9315
head 9.32222 -8.8289 4.44049
rclavicle 1.35174e-014 -2.8625e-014
rhumerus -41.8283 -22.246 -78.5146
rradius 19.5237
rwrist 29.3731
rhand -3.4563 9.19836
rfingers 7.12502
rthumb 22.276 -19.5377
lclavicle 1.35174e-014 -2.8625e-014
lhumerus -11.6202 -24.1427 69.8792
lradius 63.4259
lwrist 11.6236
lhand -28.1922 -19.4467
lfingers 7.12502
lthumb -1.57157 10.5273
rfemur -13.2816 -16.0918 19.3019
rtibia 30.4921
rfoot -21.9478 3.95456
rtoes -28.0989
lfemur -17.839 7.93569 -18.4021
ltibia 32.0511
lfoot -13.889 -13.0055
ltoes 0.0397525
27
root 1.01284 19.2389 2.36314 -174.014 -22.8431 -178.846
lowerback -4.91442 2.73518 -3.53093
upperback 6.61327 3.95017 -4.17056
thorax 9.85642 1.6629 -1.98236
lowerneck -3.95191 -10.3648 -6.3719
upperneck 20.4843 -19.1998 15.9318
head 9.29078 -8.91416 4.35064
rclavicle 3.45885e-014 -1.08139e-013
rhumerus -41.7332 -21.0181 -79.1136
rradius 20.254
rwrist 27.2823
rhand -3.59248 9.21917
rfingers 7.12502
rthumb 22.1452 -19.5325
lclavicle 3.45885e-014 -1.08139e-013
lhumerus -12.2275 -25.3594 69.5456
lradius 64.2187
lwrist 12.3595
lhand -27.8318 -18.6212
lfingers 7.12502
lthumb -1.22349 11.355
rfemur -13.1887 -15.3116 18.8399
rtibia 30.4555
rfoot -22.2697 3.13465
rtoes -28.3642
lfemur -17.8528 7.64669 -18.894
ltibia 32.165
lfoot -14.0259 -12.7763
ltoes -0.129685
28
root 0.985246 19.2247 2.3867 -173.984 -22.8161 -179.203
lowerback -4.82067 2.72317 -3.72094
upperback 6.6589 3.93982 -4.1977
thorax 9.84048 1.6408 -1.9116
lowerneck -3.91847 -10.4665 -6.03838
upperneck 20.4192 -19.3886 15.9025
head 9.25199 -8.99165 4.26463
rclavicle -1.27222e-014 -5.56597e-014
rhumerus -41.7053 -19.7966 -79.6109
rradius 21.0198
rwrist 25.2601
rhand -3.69698 9.15517
rfingers 7.12502
rthumb 22.0449 -19.6084
lclavicle -1.27222e-014 -5.56597e-014
lhumerus -12.837 -26.4781 69.3966
lradius 65.0143
lwrist 13.0672
lhand -27.665 -17.8773
lfingers 7.12502
lthumb -1.0624 12.0998
rfemur -13.0329 -14.4299 18.3839
rtibia 30.4483
rfoot -22.6924 2.20423
rtoes -28.6326
lfemur -17.8206 7.57546 -19.3654
ltibia 32.2962
lfoot -14.0952 -12.764
ltoes -0.162252
